<svg width="133" height="34" viewBox="0 0 133 34" fill="none" xmlns="http://www.w3.org/2000/svg">
<path fill-rule="evenodd" clip-rule="evenodd" d="M12.3283 2.86062C13.4383 4.41175 14.33 5.70785 14.3072 5.73259C14.2826 5.74401 13.3662 5.35766 12.2563 4.87233L10.266 3.96259L8.25104 4.87233C7.1544 5.36907 6.22472 5.78207 6.20006 5.78207C6.17539 5.78207 7.08041 4.47266 8.21499 2.87395C9.34958 1.28475 10.2887 -0.0113445 10.302 7.48839e-05C10.3134 0.0114942 11.2298 1.29617 12.3283 2.86062ZM15.4153 7.7443L16.066 8.48275L14.7152 8.42185C13.9676 8.38569 13.3643 8.37427 13.3643 8.39711C13.3643 8.41994 13.5806 8.66356 13.8595 8.94333C14.884 9.97298 15.4399 11.8039 15.2104 13.4388C15.1383 13.9241 15.0908 14.3352 15.1022 14.3466C15.1136 14.358 16.2956 14.8319 17.7186 15.3896C19.9384 16.2498 20.2989 16.4325 20.2875 16.6495C20.2875 16.8798 10.7346 33.5178 10.3855 33.8927C10.2527 34.0507 10.2053 34.0374 10.0004 33.8318C9.87893 33.6986 8.843 31.9781 7.69703 30.0139C7.05385 28.912 6.36133 27.7206 5.79783 26.7537C5.35955 26 4.99907 25.3815 4.80364 25.0465C4.35778 24.2833 3.31995 22.5019 2.5117 21.1088C1.69207 19.7023 0.787054 18.1645 0.496767 17.6791C0.206479 17.1824 -0.0211972 16.6971 0.00157045 16.5886C0.0262354 16.4439 0.834486 16.0804 2.69195 15.3648L5.34627 14.358L5.31022 13.1228C5.24951 11.6802 5.3956 10.8447 5.87752 9.81501C6.49224 8.53033 7.42192 7.70624 8.8449 7.20949C9.3401 7.04011 9.90549 7.00394 12.1007 6.99062H14.7664L15.4172 7.7424L15.4153 7.7443ZM8.7709 16.4801C6.75597 14.6511 6.94949 9.88733 9.07258 8.91859C9.66453 8.65214 10.7972 8.61598 11.3512 8.84627C13.0873 9.58472 13.8481 12.2397 13.0152 14.6511C12.2069 17.0149 10.2774 17.839 8.76901 16.4801H8.7709ZM3.57229 15.8749C2.53447 16.286 1.65412 16.6495 1.62946 16.6876C1.55736 16.7599 9.66264 20.3341 10.0478 20.4084C10.1806 20.4331 12.2183 19.609 14.571 18.5794C17.8267 17.15 18.7925 16.6761 18.6122 16.6171C18.5496 16.5886 18.3143 16.4972 17.9804 16.3659C17.6142 16.2232 17.1285 16.0328 16.6219 15.8292L14.8859 15.1498L14.4761 15.8292C13.6678 17.1862 12.7268 17.8771 11.2317 18.2158C9.10862 18.6878 6.81668 17.5973 5.8889 15.6598C5.74471 15.3572 5.58723 15.1155 5.55118 15.1269C5.50375 15.1269 4.61012 15.4657 3.57229 15.8787V15.8749ZM10.4956 26.7689L10.5316 21.025L14.8745 19.1104C17.2632 18.056 19.2649 17.1957 19.3123 17.1843C19.373 17.1729 19.3123 17.3537 19.1795 17.5592C19.0467 17.7781 17.1058 21.1221 14.8745 24.9875C12.6319 28.853 10.7251 32.1246 10.6284 32.2578C10.4956 32.4634 10.4709 31.6165 10.4956 26.7689Z" fill="black"/>
<path d="M29.0172 9.57153H34.7641C39.0274 9.57153 41.9397 12.2094 41.9397 16.1662C41.9397 20.123 39.0293 22.7609 34.7641 22.7609H29.0172V9.57153ZM34.6522 20.6883C37.5816 20.6883 39.4789 18.8973 39.4789 16.1662C39.4789 13.4351 37.5816 11.6441 34.6522 11.6441H31.459V20.6883H34.6522Z" fill="black"/>
<path d="M53.6973 18.4823H45.8273C46.11 19.9516 47.33 20.8937 49.0774 20.8937C50.2044 20.8937 51.0866 20.5359 51.8019 19.8012L53.0598 21.2515C52.1586 22.3249 50.7489 22.8901 49.0205 22.8901C45.6585 22.8901 43.4785 20.7243 43.4785 17.7267C43.4785 14.7291 45.6755 12.5823 48.6619 12.5823C51.6482 12.5823 53.7334 14.6359 53.7334 17.7819C53.7334 17.9703 53.7144 18.252 53.6954 18.4785L53.6973 18.4823ZM45.8083 16.9197H51.5003C51.3124 15.4695 50.2044 14.4703 48.6638 14.4703C47.1232 14.4703 46.0341 15.4504 45.8083 16.9197Z" fill="black"/>
<path d="M55.1071 21.3657L55.9533 19.4625C57.0044 20.3113 58.676 20.9127 60.2925 20.9127C62.3397 20.9127 63.2029 20.1781 63.2029 19.1979C63.2029 16.3526 55.3898 18.2178 55.3898 13.3189C55.3898 11.1892 57.0803 9.3811 60.6871 9.3811C62.2657 9.3811 63.9182 9.79601 65.0642 10.5497L64.2939 12.4529C63.11 11.7563 61.8141 11.4157 60.6681 11.4157C58.6399 11.4157 57.8127 12.2074 57.8127 13.2066C57.8127 16.0138 65.6068 14.1867 65.6068 19.0286C65.6068 21.1392 63.8973 22.9473 60.2906 22.9473C58.2434 22.9473 56.1962 22.3059 55.1071 21.3638V21.3657Z" fill="black"/>
<path d="M66.9766 17.7286C66.9766 14.7139 69.2306 12.5842 72.4047 12.5842C74.359 12.5842 75.9167 13.395 76.687 14.9214L74.8845 15.9758C74.2831 15.0146 73.3819 14.5807 72.3858 14.5807C70.6573 14.5807 69.3425 15.7874 69.3425 17.7267C69.3425 19.6661 70.6573 20.8728 72.3858 20.8728C73.3819 20.8728 74.2831 20.4388 74.8845 19.4777L76.687 20.5321C75.9167 22.0395 74.3571 22.8883 72.4047 22.8883C69.2306 22.8883 66.9766 20.7395 66.9766 17.7248V17.7286Z" fill="black"/>
<path d="M78.3983 9.62674C78.3983 8.835 79.0376 8.21265 79.9009 8.21265C80.7642 8.21265 81.4036 8.79694 81.4036 9.56965C81.4036 10.3995 80.7832 11.0389 79.9009 11.0389C79.0187 11.0389 78.3983 10.4166 78.3983 9.62674ZM78.717 12.6985H81.0659V22.7609H78.717V12.6985Z" fill="black"/>
<path d="M89.5543 9.57153H91.9961V20.6883H98.8701V22.7609H89.5543V9.57153Z" fill="black"/>
<path d="M109.07 16.8628V22.7609H106.854V21.5372C106.29 22.4031 105.201 22.8942 103.699 22.8942C101.407 22.8942 99.9611 21.6323 99.9611 19.8794C99.9611 18.1266 101.088 16.8838 104.131 16.8838H106.723V16.7334C106.723 15.3574 105.896 14.5485 104.224 14.5485C103.097 14.5485 101.932 14.9253 101.181 15.5477L100.261 13.8329C101.331 13.0031 102.89 12.5901 104.505 12.5901C107.398 12.5901 109.07 13.9661 109.07 16.8666V16.8628ZM106.721 19.613V18.4444H104.298C102.701 18.4444 102.27 19.0477 102.27 19.7824C102.27 20.6312 102.983 21.1774 104.186 21.1774C105.389 21.1774 106.328 20.6502 106.723 19.613H106.721Z" fill="black"/>
<path d="M122.725 17.7289C122.725 20.8559 120.566 22.8923 117.634 22.8923C116.263 22.8923 115.098 22.4203 114.31 21.4611V22.761H112.075V8.77991H114.424V13.9243C115.232 13.0203 116.359 12.5864 117.636 12.5864C120.566 12.5864 122.727 14.6019 122.727 17.7308L122.725 17.7289ZM120.34 17.7289C120.34 15.8066 119.063 14.5828 117.373 14.5828C115.682 14.5828 114.386 15.8085 114.386 17.7289C114.386 19.6492 115.682 20.8749 117.373 20.8749C119.063 20.8749 120.34 19.6511 120.34 17.7289Z" fill="black"/>
<path d="M123.814 21.7616L124.715 19.9707C125.598 20.555 126.95 20.9699 128.208 20.9699C129.692 20.9699 130.312 20.555 130.312 19.8584C130.312 17.9361 124.114 19.7461 124.114 15.7322C124.114 13.829 125.823 12.5862 128.527 12.5862C129.861 12.5862 131.382 12.9059 132.284 13.4521L131.382 15.2412C130.424 14.6759 129.466 14.4875 128.508 14.4875C127.081 14.4875 126.404 14.9595 126.404 15.618C126.404 17.6526 132.602 15.8445 132.602 19.7823C132.602 21.6665 130.874 22.8902 128.056 22.8902C126.385 22.8902 124.713 22.4011 123.812 21.7597L123.814 21.7616Z" fill="black"/>
</svg>
